<svg width="16" height="18" viewBox="0 0 16 18" fill="none" xmlns="http://www.w3.org/2000/svg">
<path d="M4.66667 0.666656C5.1269 0.666656 5.5 1.03975 5.5 1.49999V2.74999H3.83333V1.49999C3.83333 1.03975 4.20643 0.666656 4.66667 0.666656Z" fill="#667185"/>
<path d="M10.5 3.16666H5.5V3.99999C5.5 4.46023 5.1269 4.83332 4.66667 4.83332C4.20643 4.83332 3.83333 4.46023 3.83333 3.99999V3.16666H3C1.61929 3.16666 0.5 4.28594 0.5 5.66666V6.08332H15.5V5.66666C15.5 4.28594 14.3807 3.16666 13 3.16666H12.1667V3.99999C12.1667 4.46023 11.7936 4.83332 11.3333 4.83332C10.8731 4.83332 10.5 4.46023 10.5 3.99999V3.16666Z" fill="#667185"/>
<path fill-rule="evenodd" clip-rule="evenodd" d="M0.5 7.74999V14.8333C0.5 16.214 1.61929 17.3333 3 17.3333H13C14.3807 17.3333 15.5 16.214 15.5 14.8333V7.74999H0.5ZM2.16667 14C2.16667 13.5398 2.53976 13.1667 3 13.1667H8.83333C9.29357 13.1667 9.66667 13.5398 9.66667 14C9.66667 14.4602 9.29357 14.8333 8.83333 14.8333H3C2.53976 14.8333 2.16667 14.4602 2.16667 14ZM11.3333 13.1667C10.8731 13.1667 10.5 13.5398 10.5 14C10.5 14.4602 10.8731 14.8333 11.3333 14.8333H13C13.4602 14.8333 13.8333 14.4602 13.8333 14C13.8333 13.5398 13.4602 13.1667 13 13.1667H11.3333Z" fill="#667185"/>
<path d="M12.1667 1.49999C12.1667 1.03975 11.7936 0.666656 11.3333 0.666656C10.8731 0.666656 10.5 1.03975 10.5 1.49999V2.74999H12.1667V1.49999Z" fill="#667185"/>
</svg>
