<svg width="27" height="26" viewBox="0 0 27 26" fill="none" xmlns="http://www.w3.org/2000/svg">
<path d="M7.04164 16.2292C6.44717 16.2292 5.96525 15.7473 5.96525 15.1528C5.96525 14.5583 6.44717 14.0764 7.04164 14.0764C7.63611 14.0764 8.11803 14.5583 8.11803 15.1528C8.11803 15.7473 7.63611 16.2292 7.04164 16.2292Z" fill="#667185"/>
<path d="M10.2708 15.1528C10.2708 15.7473 10.7527 16.2292 11.3472 16.2292C11.9417 16.2292 12.4236 15.7473 12.4236 15.1528C12.4236 14.5583 11.9417 14.0764 11.3472 14.0764C10.7527 14.0764 10.2708 14.5583 10.2708 15.1528Z" fill="#667185"/>
<path d="M15.6528 16.2292C15.0583 16.2292 14.5764 15.7473 14.5764 15.1528C14.5764 14.5583 15.0583 14.0764 15.6528 14.0764C16.2472 14.0764 16.7291 14.5583 16.7291 15.1528C16.7291 15.7473 16.2472 16.2292 15.6528 16.2292Z" fill="#667185"/>
<path fill-rule="evenodd" clip-rule="evenodd" d="M22.6256 14.5586L19.9544 14.8925C19.957 14.979 19.9583 15.0657 19.9583 15.1528C19.9583 19.9086 16.103 23.7639 11.3472 23.7639C10.6358 23.7639 9.94311 23.6774 9.27974 23.5138L4.65245 22.9354C3.51438 22.7932 2.72346 21.7323 2.91202 20.601L3.19585 18.898L2.98614 17.2202C2.82259 16.5569 2.73608 15.8642 2.73608 15.1528C2.73608 10.397 6.59141 6.54167 11.3472 6.54167C11.4695 6.54167 11.5912 6.54422 11.7123 6.54927C12.5968 4.03739 14.9896 2.23611 17.8055 2.23611C21.3724 2.23611 24.2639 5.12761 24.2639 8.69445C24.2639 9.22128 24.2006 9.73474 24.0807 10.2271L23.9386 11.3632L24.134 12.5355C24.2974 13.5159 23.612 14.4354 22.6256 14.5586ZM17.8055 4.38889C20.1834 4.38889 22.1111 6.31656 22.1111 8.69445C22.1111 9.06477 22.0646 9.42268 21.9776 9.76331L21.9609 9.82886L21.7952 11.1546C21.7742 11.3224 21.7777 11.4923 21.8055 11.6591L21.9414 12.4746L19.6228 12.7645C18.8199 9.97752 16.6474 7.77091 13.8809 6.92047C14.557 5.42715 16.061 4.38889 17.8055 4.38889ZM11.3472 8.69445C7.78036 8.69445 4.88886 11.5859 4.88886 15.1528C4.88886 15.7074 4.95854 16.2443 5.08906 16.7557L5.10579 16.8212L5.33444 18.6504C5.35864 18.844 5.35464 19.0401 5.32257 19.2325L5.05854 20.8167L9.67875 21.3942L9.74431 21.4109C10.2557 21.5414 10.7925 21.6111 11.3472 21.6111C14.914 21.6111 17.8055 18.7196 17.8055 15.1528C17.8055 11.5859 14.914 8.69445 11.3472 8.69445Z" fill="#667185"/>
</svg>
