<svg width="14" height="18" viewBox="0 0 14 18" fill="none" xmlns="http://www.w3.org/2000/svg">
<path fill-rule="evenodd" clip-rule="evenodd" d="M7.83333 0.666656H2.83333C1.45262 0.666656 0.333328 1.78594 0.333328 3.16666V14.8333C0.333328 16.214 1.45262 17.3333 2.83333 17.3333H11.1667C12.5474 17.3333 13.6667 16.214 13.6667 14.8333V7.33332H11.1667C9.32571 7.33332 7.83333 5.84094 7.83333 3.99999V0.666656ZM13.4971 5.66666C13.3997 5.41607 13.2619 5.18095 13.0872 4.97132L10.2496 1.5662C10.0391 1.31361 9.78373 1.10823 9.5 0.95783V3.99999C9.5 4.92046 10.2462 5.66666 11.1667 5.66666H13.4971ZM10.9646 14.65C10.8146 14.65 10.6729 14.6 10.5479 14.4917C10.0562 14.0584 9.78124 13.875 9.63958 13.7917C9.6184 13.8082 9.59522 13.826 9.57081 13.8447L9.57042 13.845C9.50847 13.8926 9.43855 13.9463 9.37291 14C8.82291 14.425 8.51458 14.65 8.18124 14.65C7.72291 14.65 7.02291 14.4917 6.57291 13.65L6.38958 13.925C6.09791 14.3584 5.73958 14.5834 5.33958 14.5917C4.72291 14.5834 4.28124 14.1584 3.86458 13.6417C3.62291 13.9084 3.35625 14.1834 3.06458 14.475C2.81458 14.7167 2.42291 14.7167 2.18124 14.475C1.93958 14.2334 1.93958 13.8334 2.18124 13.5917C2.56458 13.2084 2.88125 12.8667 3.14791 12.5667C2.80624 11.9334 2.47291 11.125 2.45624 10.4167C2.44791 9.78336 2.63958 9.23336 3.00625 8.85836C3.28124 8.57503 3.63958 8.4167 4.00624 8.4167C4.77291 8.4167 5.55624 8.65003 5.55624 10.4084C5.55624 11.0667 5.26458 11.8084 4.66458 12.6584L4.73958 12.7584C5.02291 13.1334 5.18958 13.275 5.27291 13.3334C5.27934 13.3237 5.28702 13.3141 5.29546 13.3035C5.30888 13.2866 5.32423 13.2673 5.33958 13.2417L6.26458 11.875C6.41458 11.6584 6.67291 11.5584 6.93124 11.6167C7.18124 11.675 7.37291 11.8917 7.40625 12.1417C7.53958 13.2084 7.87291 13.3834 8.07291 13.4084C8.20625 13.325 8.44791 13.1417 8.59791 13.025C9.05624 12.6667 9.27291 12.5084 9.55624 12.5084C9.91458 12.5084 10.3562 12.6917 11.3562 13.575C11.6146 13.8 11.6396 14.2 11.4146 14.4584C11.2896 14.6 11.1146 14.6667 10.9479 14.6667L10.9646 14.65ZM4.21458 9.63336C4.21458 9.63336 4.09791 9.65003 4.02291 9.65003C4.00624 9.65003 3.96458 9.6667 3.91458 9.7167C3.85624 9.77503 3.71458 9.9667 3.72291 10.3834C3.72291 10.6667 3.83958 11.0334 3.98958 11.4C4.26458 10.9167 4.32291 10.5917 4.32291 10.3917C4.32291 9.78336 4.21458 9.6417 4.21458 9.6417V9.63336ZM2.9733 5.24999H6.30664C6.6483 5.24999 6.93164 4.96666 6.93164 4.62499C6.93164 4.28332 6.6483 3.99999 6.30664 3.99999H2.9733C2.63164 3.99999 2.3483 4.28332 2.3483 4.62499C2.3483 4.96666 2.63164 5.24999 2.9733 5.24999Z" fill="#667185"/>
</svg>
