<svg width="19" height="18" viewBox="0 0 19 18" fill="none" xmlns="http://www.w3.org/2000/svg">
<path d="M5.25 2.33335C5.71024 2.33335 6.08333 1.96026 6.08333 1.50002C6.08333 1.03978 5.71024 0.666687 5.25 0.666687H4C2.15905 0.666687 0.666664 2.15907 0.666664 4.00002V14C0.666664 15.841 2.15905 17.3334 4 17.3334H5.25C5.71023 17.3334 6.08333 16.9603 6.08333 16.5C6.08333 16.0398 5.71024 15.6667 5.25 15.6667H4C3.07952 15.6667 2.33333 14.9205 2.33333 14L2.33333 4.00002C2.33333 3.07955 3.07952 2.33335 4 2.33335H5.25Z" fill="black"/>
<path d="M17.9226 9.58928C18.248 9.26384 18.248 8.7362 17.9226 8.41077L14.5893 5.07743C14.2638 4.75199 13.7362 4.75199 13.4107 5.07743C13.0853 5.40287 13.0853 5.93051 13.4107 6.25594L15.3215 8.16669L5.66666 8.16669C5.20643 8.16669 4.83333 8.53978 4.83333 9.00002C4.83333 9.46026 5.20643 9.83335 5.66666 9.83335L15.3215 9.83335L13.4107 11.7441C13.0853 12.0695 13.0853 12.5972 13.4107 12.9226C13.7362 13.248 14.2638 13.248 14.5893 12.9226L17.9226 9.58928Z" fill="black"/>
</svg>
