<svg width="29" height="28" viewBox="0 0 29 28" fill="none" xmlns="http://www.w3.org/2000/svg">
<path d="M7.50008 11.0834C7.50008 7.53955 10.3729 4.66671 13.9167 4.66671C17.0559 4.66671 19.6708 6.92209 20.2249 9.90116C20.3027 10.3189 20.6014 10.6614 21.0047 10.7951C23.3272 11.5654 25.0001 13.7556 25.0001 16.3334C25.0001 19.555 22.3884 22.1667 19.1667 22.1667C18.5224 22.1667 18.0001 22.689 18.0001 23.3334C18.0001 23.9777 18.5224 24.5 19.1667 24.5C23.6771 24.5 27.3334 20.8437 27.3334 16.3334C27.3334 12.9588 25.2874 10.0648 22.3708 8.81955C21.3727 5.08438 17.9671 2.33337 13.9167 2.33337C9.08426 2.33337 5.16675 6.25088 5.16675 11.0834C5.16675 11.2004 5.16905 11.3169 5.17362 11.4328C3.07897 12.6413 1.66675 14.9047 1.66675 17.5C1.66675 21.366 4.80076 24.5 8.66675 24.5C9.31108 24.5 9.83342 23.9777 9.83342 23.3334C9.83342 22.689 9.31108 22.1667 8.66675 22.1667C6.08942 22.1667 4.00008 20.0774 4.00008 17.5C4.00008 15.5665 5.17629 13.9049 6.85684 13.197C7.34315 12.9921 7.6314 12.4864 7.55981 11.9635C7.52048 11.6763 7.50008 11.3826 7.50008 11.0834Z" fill="#475367"/>
<path d="M13.725 16.6281C14.167 16.2351 14.8331 16.2351 15.2752 16.6281L17.0252 18.1836C17.5068 18.6117 17.5501 19.3491 17.1221 19.8307C16.7476 20.252 16.1363 20.3379 15.6667 20.0662V25.6667C15.6667 26.311 15.1444 26.8334 14.5001 26.8334C13.8557 26.8334 13.3334 26.311 13.3334 25.6667V20.0662C12.8638 20.3379 12.2526 20.252 11.8781 19.8307C11.45 19.3491 11.4934 18.6117 11.975 18.1836L13.725 16.6281Z" fill="#475367"/>
</svg>
